<svg width="50" height="50" viewBox="0 0 50 50" fill="none" xmlns="http://www.w3.org/2000/svg">
<rect width="50" height="50" rx="4" fill="white"/>
<path d="M33.6933 38.61C30.8529 38.61 28.5421 36.2992 28.5421 33.4589C28.5421 32.7656 28.6807 32.0892 28.9542 31.4484C29.4636 30.2325 30.4566 29.2345 31.6774 28.7139C31.6935 28.7071 31.7101 28.7009 31.7267 28.6956C32.3459 28.4381 33.0071 28.3077 33.6933 28.3077C36.5337 28.3077 38.8448 30.6185 38.8448 33.4589C38.8448 36.2992 36.5337 38.61 33.6933 38.61ZM32.091 29.7922C31.1619 30.2004 30.4075 30.9658 30.0171 31.8977C29.8036 32.3983 29.696 32.9222 29.696 33.4589C29.696 35.6629 31.4893 37.4562 33.6933 37.4562C35.8976 37.4562 37.6909 35.6629 37.6909 33.4589C37.6909 31.2548 35.8976 29.4615 33.6933 29.4615C33.1474 29.4615 32.6234 29.5672 32.1358 29.7753C32.1211 29.7815 32.1062 29.7872 32.091 29.7922Z" fill="#0069B4"/>
<path d="M16.5411 21.4564C16.2501 21.4564 15.9569 21.4325 15.6639 21.3843C13.4413 21.0176 11.699 19.1919 11.4271 16.9447C11.3471 16.2853 11.3905 15.6303 11.5559 14.9985C11.608 14.7985 11.7635 14.6415 11.9629 14.5875C12.1624 14.5331 12.3759 14.5903 12.5218 14.7365L14.6715 16.8859H16.498L17.2862 16.0977V14.2711L15.2397 12.2243C15.0892 12.0738 15.0338 11.8527 15.0954 11.649C15.1571 11.4457 15.3259 11.2924 15.5343 11.2507C15.8558 11.1865 16.1938 11.1538 16.5394 11.1538C19.3798 11.1538 21.6909 13.4646 21.6909 16.305C21.6909 16.9918 21.5548 17.6667 21.2861 18.311C20.7678 19.5338 19.7728 20.5311 18.5556 21.05C18.539 21.057 18.5221 21.0632 18.5051 21.0688C17.8863 21.326 17.2197 21.4564 16.5411 21.4564ZM18.3294 20.5192H18.335H18.3294ZM12.543 16.3892C12.5458 16.5275 12.5556 16.6667 12.5725 16.8061C12.7832 18.5476 14.1317 19.962 15.8518 20.2457C16.6279 20.3736 17.4037 20.2851 18.0967 19.9888C18.1119 19.9823 18.1274 19.9764 18.1429 19.9713C19.07 19.5637 19.8266 18.7978 20.2227 17.8636C20.4309 17.3642 20.5371 16.8385 20.5371 16.305C20.5371 14.2491 18.977 12.551 16.9786 12.3316L18.2711 13.6243C18.3792 13.7325 18.4401 13.8793 18.4401 14.0322V16.3365C18.4401 16.4895 18.3792 16.6363 18.2711 16.7444L17.1448 17.8707C17.0366 17.9789 16.8899 18.0397 16.7369 18.0397H14.4326C14.2796 18.0397 14.1329 17.9789 14.0247 17.8707L12.543 16.3892Z" fill="#0069B4"/>
<path d="M31.902 29.8192C31.7541 29.8192 31.6065 29.7629 31.4938 29.6499L28.0844 26.2346C27.8593 26.009 27.8596 25.6439 28.085 25.4188C28.3106 25.194 28.6757 25.1934 28.9008 25.4194L32.3102 28.8347C32.5356 29.0603 32.535 29.4254 32.3096 29.6505C32.197 29.7629 32.0496 29.8192 31.902 29.8192Z" fill="#0069B4"/>
<path d="M24.1712 22.0887C24.0233 22.0887 23.8757 22.0323 23.763 21.9194L20.3477 18.4981C20.1223 18.2725 20.1229 17.9074 20.3483 17.6823C20.5739 17.4572 20.939 17.4572 21.1641 17.6829L24.5794 21.1041C24.8048 21.3298 24.8042 21.6948 24.5788 21.9199C24.4662 22.0323 24.3185 22.0887 24.1712 22.0887Z" fill="#0069B4"/>
<path d="M21.7485 24.5174C21.6009 24.5174 21.4533 24.4611 21.3406 24.3484L17.9194 20.9275C17.694 20.7021 17.694 20.337 17.9194 20.1116C18.1447 19.8863 18.5098 19.8863 18.7352 20.1116L22.1564 23.5326C22.3818 23.758 22.3818 24.1231 22.1564 24.3484C22.0438 24.4611 21.8962 24.5174 21.7485 24.5174Z" fill="#0069B4"/>
<path d="M29.4848 32.254C29.3372 32.254 29.1896 32.1977 29.0769 32.085L25.6559 28.6637C25.4305 28.4384 25.4305 28.0733 25.6559 27.8479C25.8813 27.6226 26.2463 27.6226 26.4717 27.8479L29.8927 31.2692C30.118 31.4945 30.118 31.8596 29.8927 32.085C29.78 32.1977 29.6324 32.254 29.4848 32.254Z" fill="#0069B4"/>
<path d="M34.8539 36.0454H32.5327C32.3265 36.0454 32.1361 35.9355 32.0329 35.7569L30.8723 33.7467C30.7695 33.5681 30.7695 33.3484 30.8723 33.1698L32.0329 31.1593C32.1361 30.9807 32.3265 30.8708 32.5327 30.8708H34.8539C35.0601 30.8708 35.2505 30.9807 35.3536 31.1593L36.5142 33.1698C36.6171 33.3484 36.6171 33.5681 36.5142 33.7467L35.3536 35.7569C35.2505 35.9355 35.0601 36.0454 34.8539 36.0454ZM32.8657 34.8916H34.5209L35.3483 33.4583L34.5206 32.0247H32.8659L32.0383 33.4583L32.8657 34.8916Z" fill="#0069B4"/>
<path d="M24.3616 30.2233C24.0216 30.2233 23.6819 30.094 23.423 29.8351L20.1654 26.5835C19.6541 26.0615 19.6541 25.2231 20.1595 24.7079L32.6307 12.2364C34.0234 10.8502 36.2835 10.8508 37.6694 12.2364L37.7554 12.317C39.1568 13.7179 39.1568 15.9786 37.7675 17.3676L25.3002 29.8351C25.0414 30.094 24.7016 30.2233 24.3616 30.2233ZM35.1479 12.3514C34.5307 12.3514 33.9152 12.5857 33.4456 13.0534L20.9784 25.5209C20.9147 25.5857 20.9147 25.6995 20.9835 25.7696L24.2388 29.0193C24.3075 29.0881 24.4157 29.0881 24.4844 29.0193L36.9517 16.5518C37.4063 16.0971 37.6568 15.4921 37.6568 14.8484C37.6568 14.2044 37.4063 13.5993 36.9517 13.1446L36.8657 13.0641C36.39 12.5883 35.7682 12.3514 35.1479 12.3514Z" fill="#0069B4"/>
<path d="M13.245 38.8461C13.0957 38.8461 12.9481 38.7884 12.8368 38.6771L11.3246 37.1647C11.1359 36.9759 11.1012 36.6827 11.2407 36.4553L13.1855 33.2828C13.3858 32.9561 13.7171 32.729 14.094 32.6597C14.4698 32.5893 14.8602 32.6848 15.1639 32.9192C15.2414 32.9792 15.2825 33.0152 15.3208 33.0538L16.7747 34.5077C16.8051 34.5381 16.8341 34.5702 16.8617 34.6037L17.0395 34.8218C17.286 35.1237 17.3899 35.5178 17.3248 35.9021C17.2595 36.2869 17.0316 36.6244 16.6989 36.8283L13.5461 38.7611C13.4529 38.8183 13.3486 38.8461 13.245 38.8461ZM12.4621 36.6706L13.3309 37.5396L16.0958 35.8449C16.1623 35.8041 16.1814 35.7424 16.1871 35.7091C16.1927 35.6762 16.1949 35.6117 16.1454 35.5508L15.9589 35.3235L14.505 33.8696C14.5045 33.8693 14.4591 33.8327 14.4585 33.8324C14.3983 33.7857 14.3357 33.7899 14.3022 33.7947C14.2698 33.8006 14.2092 33.8203 14.1692 33.886L12.4621 36.6706Z" fill="#0069B4"/>
<path d="M14.6466 33.7724C14.499 33.7724 14.3514 33.7161 14.2387 33.6034C14.0134 33.378 14.0134 33.0126 14.2387 32.7876L20.715 26.3124C20.9404 26.087 21.3055 26.087 21.5308 26.3124C21.7562 26.5378 21.7562 26.9031 21.5308 27.1282L15.0545 33.6034C14.9418 33.7161 14.7942 33.7724 14.6466 33.7724Z" fill="#0069B4"/>
<path d="M16.8051 35.9309C16.6575 35.9309 16.5099 35.8746 16.3972 35.7619C16.1719 35.5365 16.1719 35.1712 16.3972 34.9461L22.8735 28.4712C23.0989 28.2458 23.464 28.2458 23.6893 28.4712C23.9147 28.6966 23.9147 29.0619 23.6893 29.287L17.213 35.7619C17.1004 35.8746 16.9527 35.9309 16.8051 35.9309Z" fill="#0069B4"/>
<path d="M24.3601 26.2177C24.2125 26.2177 24.0649 26.1614 23.9522 26.0487C23.7269 25.8233 23.7269 25.4582 23.9522 25.2329L34.745 14.4401C34.9704 14.2147 35.3355 14.2147 35.5608 14.4401C35.7862 14.6654 35.7862 15.0305 35.5608 15.2559L24.768 26.0487C24.6553 26.1614 24.5077 26.2177 24.3601 26.2177Z" fill="#0069B4"/>
</svg>
