<svg width="32" height="32" viewBox="0 0 32 32" fill="none" xmlns="http://www.w3.org/2000/svg">
<path d="M10.1582 20.9719L10.229 20.8278L11.1634 18.9247L11.1908 18.8689L11.2529 18.8688L26.7779 18.8406L26.7781 18.8406C27.2547 18.8406 27.6632 18.5003 27.7484 18.0293L10.1582 20.9719ZM10.1582 20.9719H10.3187H28.9281C29.1939 20.972 29.4489 21.0773 29.6375 21.2648C29.8259 21.4522 29.9326 21.7064 29.9344 21.9722C29.9342 22.526 29.4824 22.975 28.9312 22.975H25.3906H25.1913L25.3105 23.1348C25.7104 23.671 25.9344 24.3283 25.9344 25.0031C25.9344 26.7166 24.5416 28.1094 22.8281 28.1094C21.1146 28.1094 19.7219 26.7166 19.7219 25.0031V25.003C19.7213 24.3292 19.9402 23.6735 20.3455 23.1351L20.4661 22.975H20.2656H15.2312H15.0319L15.1511 23.1348C15.551 23.671 15.775 24.3283 15.775 25.0031C15.775 26.7166 14.3823 28.1094 12.6687 28.1094C10.9552 28.1094 9.5625 26.7166 9.5625 25.0031V25.003C9.56191 24.3292 9.78083 23.6735 10.1861 23.1351L10.3067 22.975H10.1062H8.14375C7.7629 22.975 7.41923 22.762 7.24867 22.4237L7.24831 22.423C7.16359 22.2583 7.12667 22.0731 7.14172 21.8885C7.15677 21.7039 7.2232 21.5271 7.33347 21.3783L7.33379 21.3785L7.3384 21.371L9.6759 17.5554L9.69656 17.5216L9.68856 17.4829L7.87293 8.69227L7.87286 8.69192L7.13536 5.18567L7.11865 5.10625H7.0375H3.10312C2.83708 5.10625 2.58193 5.00056 2.39381 4.81244C2.20569 4.62432 2.1 4.36917 2.1 4.10313C2.1 3.83708 2.20569 3.58193 2.39381 3.39381C2.58193 3.20569 2.83708 3.1 3.10312 3.1H7.93125C8.403 3.1 8.81816 3.43589 8.91463 3.89554L8.91469 3.8958L9.08344 4.68954L9.10022 4.76848L9.18092 4.76875L28.9307 4.83437C28.9307 4.83437 28.9307 4.83437 28.9308 4.83437C29.0748 4.83524 29.217 4.86742 29.3473 4.92868C29.4778 4.98997 29.5933 5.07889 29.6859 5.18927C29.8728 5.41315 29.9496 5.70809 29.8984 5.99495L27.7485 18.0291L10.1582 20.9719ZM9.64096 6.74375L9.51728 6.74334L9.54277 6.86436L11.6396 16.8175L11.6564 16.897L11.7377 16.8969L25.8721 16.8719L25.9556 16.8717L25.9703 16.7895L27.7328 6.92071L27.7537 6.80352L27.6347 6.80313L9.64096 6.74375ZM11.5812 25.0031C11.5812 25.6021 12.0698 26.0906 12.6687 26.0906C12.9572 26.0906 13.2338 25.976 13.4377 25.7721C13.6417 25.5682 13.7563 25.2915 13.7563 25.0031C13.7563 24.4041 13.2677 23.9156 12.6687 23.9156C12.0698 23.9156 11.5812 24.4041 11.5812 25.0031ZM21.7406 25.0031C21.7406 25.6021 22.2291 26.0906 22.8281 26.0906C23.1165 26.0906 23.3932 25.976 23.5971 25.7721C23.801 25.5682 23.9156 25.2915 23.9156 25.0031C23.9156 24.4041 23.4271 23.9156 22.8281 23.9156C22.2291 23.9156 21.7406 24.4041 21.7406 25.0031Z" fill="#0069B4" stroke="white" stroke-width="0.2"/>
</svg>
